<svg width="400" height="400" viewBox="0 0 400 400" fill="none" xmlns="http://www.w3.org/2000/svg">
<rect width="400" height="400" fill="white"/>
<path d="M110.739 105.739C107.978 105.739 105.739 107.978 105.739 110.739V155.739C105.739 158.501 107.978 160.739 110.739 160.739C113.501 160.739 115.739 158.501 115.739 155.739V115.739H155.739C158.501 115.739 160.739 113.501 160.739 110.739C160.739 107.978 158.501 105.739 155.739 105.739H110.739ZM289.067 294.067C291.828 294.067 294.067 291.828 294.067 289.067V244.067C294.067 241.306 291.828 239.067 289.067 239.067C286.306 239.067 284.067 241.306 284.067 244.067V284.067H244.067C241.306 284.067 239.067 286.306 239.067 289.067C239.067 291.828 241.306 294.067 244.067 294.067H289.067ZM107.204 114.275L285.532 292.603L292.603 285.532L114.275 107.204L107.204 114.275Z" fill="black"/>
<path d="M105.739 289.067C105.739 291.828 107.978 294.067 110.739 294.067H155.739C158.501 294.067 160.739 291.828 160.739 289.067C160.739 286.306 158.501 284.067 155.739 284.067H115.739V244.067C115.739 241.306 113.501 239.067 110.739 239.067C107.978 239.067 105.739 241.306 105.739 244.067V289.067ZM294.067 110.739C294.067 107.978 291.828 105.739 289.067 105.739H244.067C241.306 105.739 239.067 107.978 239.067 110.739C239.067 113.5 241.306 115.739 244.067 115.739H284.067V155.739C284.067 158.5 286.306 160.739 289.067 160.739C291.828 160.739 294.067 158.5 294.067 155.739V110.739ZM114.275 292.603L292.603 114.275L285.532 107.204L107.204 285.532L114.275 292.603Z" fill="black"/>
<path d="M70.2706 196.368C68.318 198.32 68.318 201.486 70.2706 203.439L102.09 235.258C104.043 237.211 107.209 237.211 109.161 235.258C111.114 233.306 111.114 230.14 109.161 228.187L80.8772 199.903L109.161 171.619C111.114 169.666 111.114 166.5 109.161 164.548C107.209 162.595 104.043 162.595 102.09 164.548L70.2706 196.368ZM329.536 203.439C331.488 201.486 331.488 198.32 329.536 196.368L297.716 164.548C295.763 162.595 292.597 162.595 290.645 164.548C288.692 166.5 288.692 169.666 290.645 171.619L318.929 199.903L290.645 228.187C288.692 230.14 288.692 233.306 290.645 235.258C292.597 237.211 295.763 237.211 297.716 235.258L329.536 203.439ZM73.8061 204.903H326V194.903H73.8061V204.903Z" fill="black"/>
<path d="M196.368 329.536C198.32 331.488 201.486 331.488 203.439 329.536L235.258 297.716C237.211 295.763 237.211 292.597 235.258 290.645C233.306 288.692 230.14 288.692 228.187 290.645L199.903 318.929L171.619 290.645C169.666 288.692 166.5 288.692 164.548 290.645C162.595 292.597 162.595 295.763 164.548 297.716L196.368 329.536ZM203.439 70.2706C201.486 68.318 198.32 68.318 196.368 70.2706L164.548 102.09C162.595 104.043 162.595 107.209 164.548 109.161C166.5 111.114 169.666 111.114 171.619 109.161L199.903 80.8772L228.187 109.161C230.14 111.114 233.306 111.114 235.258 109.161C237.211 107.209 237.211 104.043 235.258 102.09L203.439 70.2706ZM204.903 326L204.903 73.8062L194.903 73.8062L194.903 326L204.903 326Z" fill="black"/>
</svg>
